<mxfile host="app.diagrams.net" agent="Mozilla/5.0 (Windows NT 10.0; Win64; x64) AppleWebKit/537.36 (KHTML, like Gecko) Chrome/130.0.0.0 Safari/537.36" version="24.8.4">
  <diagram name="Pagina-1" id="EJrOZ2GIt7mjjmMNtmOI">
    <mxGraphModel dx="2139" dy="2207" grid="1" gridSize="10" guides="1" tooltips="1" connect="1" arrows="1" fold="1" page="1" pageScale="1" pageWidth="827" pageHeight="1169" math="0" shadow="0">
      <root>
        <mxCell id="0" />
        <mxCell id="1" parent="0" />
        <mxCell id="ErnYhEEOo7ahbGE3ESCM-1" value="" style="strokeWidth=1;shadow=0;dashed=0;align=center;html=1;shape=mxgraph.mockup.containers.browserWindow;rSize=0;strokeColor=#666666;strokeColor2=#008cff;strokeColor3=#c4c4c4;mainText=,;recursiveResize=0;" vertex="1" parent="1">
          <mxGeometry x="40" y="-10" width="1160" height="810" as="geometry" />
        </mxCell>
        <mxCell id="ErnYhEEOo7ahbGE3ESCM-2" value="Page 1" style="strokeWidth=1;shadow=0;dashed=0;align=center;html=1;shape=mxgraph.mockup.containers.anchor;fontSize=17;fontColor=#666666;align=left;whiteSpace=wrap;" vertex="1" parent="ErnYhEEOo7ahbGE3ESCM-1">
          <mxGeometry x="60" y="12" width="110" height="26" as="geometry" />
        </mxCell>
        <mxCell id="ErnYhEEOo7ahbGE3ESCM-3" value="https://www.mypersonaldriver/documents.it" style="strokeWidth=1;shadow=0;dashed=0;align=center;html=1;shape=mxgraph.mockup.containers.anchor;rSize=0;fontSize=17;fontColor=#666666;align=left;" vertex="1" parent="ErnYhEEOo7ahbGE3ESCM-1">
          <mxGeometry x="130" y="60" width="250" height="26" as="geometry" />
        </mxCell>
        <mxCell id="ErnYhEEOo7ahbGE3ESCM-6" value="" style="line;strokeWidth=4;html=1;perimeter=backbonePerimeter;points=[];outlineConnect=0;" vertex="1" parent="ErnYhEEOo7ahbGE3ESCM-1">
          <mxGeometry y="190" width="1160" height="10" as="geometry" />
        </mxCell>
        <mxCell id="ErnYhEEOo7ahbGE3ESCM-7" value="" style="shape=mxgraph.signs.transportation.car_4;html=1;pointerEvents=1;fillColor=#000000;strokeColor=none;verticalLabelPosition=bottom;verticalAlign=top;align=center;" vertex="1" parent="ErnYhEEOo7ahbGE3ESCM-1">
          <mxGeometry x="10" y="120" width="70" height="60" as="geometry" />
        </mxCell>
        <mxCell id="ErnYhEEOo7ahbGE3ESCM-8" value="Home" style="strokeWidth=1;shadow=0;dashed=0;align=center;html=1;shape=mxgraph.mockup.buttons.button;strokeColor=#666666;fontColor=#ffffff;mainText=;buttonStyle=round;fontSize=17;fontStyle=1;fillColor=#008cff;whiteSpace=wrap;" vertex="1" parent="ErnYhEEOo7ahbGE3ESCM-1">
          <mxGeometry x="150" y="127.5" width="120" height="45" as="geometry" />
        </mxCell>
        <mxCell id="ErnYhEEOo7ahbGE3ESCM-9" value="" style="line;strokeWidth=4;html=1;perimeter=backbonePerimeter;points=[];outlineConnect=0;" vertex="1" parent="ErnYhEEOo7ahbGE3ESCM-1">
          <mxGeometry y="660" width="1160" height="10" as="geometry" />
        </mxCell>
        <mxCell id="ErnYhEEOo7ahbGE3ESCM-10" value="About us" style="strokeWidth=1;shadow=0;dashed=0;align=center;html=1;shape=mxgraph.mockup.buttons.button;strokeColor=#666666;fontColor=#ffffff;mainText=;buttonStyle=round;fontSize=17;fontStyle=1;fillColor=#008cff;whiteSpace=wrap;" vertex="1" parent="ErnYhEEOo7ahbGE3ESCM-1">
          <mxGeometry x="480" y="680" width="150" height="50" as="geometry" />
        </mxCell>
        <mxCell id="ErnYhEEOo7ahbGE3ESCM-11" value="Corse" style="strokeWidth=1;shadow=0;dashed=0;align=center;html=1;shape=mxgraph.mockup.buttons.button;strokeColor=#666666;fontColor=#ffffff;mainText=;buttonStyle=round;fontSize=17;fontStyle=1;fillColor=#008cff;whiteSpace=wrap;" vertex="1" parent="ErnYhEEOo7ahbGE3ESCM-1">
          <mxGeometry x="400" y="125" width="150" height="50" as="geometry" />
        </mxCell>
        <mxCell id="ErnYhEEOo7ahbGE3ESCM-32" value="" style="swimlane;strokeColor=#999999;swimlaneFillColor=#FFFFFF;fillColor=#ffffff;fontColor=#666666;fontStyle=0;childLayout=stackLayout;horizontal=1;startSize=0;horizontalStack=0;resizeParent=1;resizeParentMax=0;resizeLast=0;collapsible=0;marginBottom=0;whiteSpace=wrap;html=1;" vertex="1" parent="ErnYhEEOo7ahbGE3ESCM-1">
          <mxGeometry x="200" y="320" width="150" height="180" as="geometry" />
        </mxCell>
        <mxCell id="ErnYhEEOo7ahbGE3ESCM-44" value="&amp;nbsp; &amp;nbsp; &amp;nbsp; Voto" style="text;strokeColor=none;align=left;verticalAlign=middle;spacingLeft=27;spacingRight=10;overflow=hidden;points=[[0,0.5],[1,0.5]];portConstraint=eastwest;rotatable=0;whiteSpace=wrap;html=1;fillColor=none;fontColor=inherit;fontSize=17;" vertex="1" parent="ErnYhEEOo7ahbGE3ESCM-32">
          <mxGeometry width="150" height="30" as="geometry" />
        </mxCell>
        <mxCell id="ErnYhEEOo7ahbGE3ESCM-33" value="1" style="text;strokeColor=none;align=left;verticalAlign=middle;spacingLeft=27;spacingRight=10;overflow=hidden;points=[[0,0.5],[1,0.5]];portConstraint=eastwest;rotatable=0;whiteSpace=wrap;html=1;fillColor=none;fontColor=inherit;fontSize=17;" vertex="1" parent="ErnYhEEOo7ahbGE3ESCM-32">
          <mxGeometry y="30" width="150" height="30" as="geometry" />
        </mxCell>
        <mxCell id="ErnYhEEOo7ahbGE3ESCM-34" value="" style="resizable=0;fillColor=#EEEEEE;strokeColor=#999999;gradientColor=#cccccc;html=1;" vertex="1" parent="ErnYhEEOo7ahbGE3ESCM-33">
          <mxGeometry y="0.5" width="15" height="15" relative="1" as="geometry">
            <mxPoint x="8" y="-7.5" as="offset" />
          </mxGeometry>
        </mxCell>
        <mxCell id="ErnYhEEOo7ahbGE3ESCM-35" value="2" style="text;strokeColor=none;align=left;verticalAlign=middle;spacingLeft=27;spacingRight=10;overflow=hidden;points=[[0,0.5],[1,0.5]];portConstraint=eastwest;rotatable=0;whiteSpace=wrap;html=1;rSize=5;fillColor=none;fontColor=inherit;fontSize=17;" vertex="1" parent="ErnYhEEOo7ahbGE3ESCM-32">
          <mxGeometry y="60" width="150" height="30" as="geometry" />
        </mxCell>
        <mxCell id="ErnYhEEOo7ahbGE3ESCM-36" value="" style="resizable=0;fillColor=#EEEEEE;strokeColor=#999999;gradientColor=#cccccc;html=1;" vertex="1" parent="ErnYhEEOo7ahbGE3ESCM-35">
          <mxGeometry y="0.5" width="15" height="15" relative="1" as="geometry">
            <mxPoint x="8" y="-7.5" as="offset" />
          </mxGeometry>
        </mxCell>
        <mxCell id="ErnYhEEOo7ahbGE3ESCM-37" value="3" style="text;strokeColor=none;align=left;verticalAlign=middle;spacingLeft=27;spacingRight=10;overflow=hidden;points=[[0,0.5],[1,0.5]];portConstraint=eastwest;rotatable=0;whiteSpace=wrap;html=1;rSize=5;fillColor=none;fontColor=#008CFF;fontSize=17;" vertex="1" parent="ErnYhEEOo7ahbGE3ESCM-32">
          <mxGeometry y="90" width="150" height="30" as="geometry" />
        </mxCell>
        <mxCell id="ErnYhEEOo7ahbGE3ESCM-38" value="" style="shape=mxgraph.mockup.forms.checkbox;resizable=0;fillColor=#AAAAAA;gradientColor=#666666;strokeColor=#444444;html=1;" vertex="1" parent="ErnYhEEOo7ahbGE3ESCM-37">
          <mxGeometry y="0.5" width="15" height="15" relative="1" as="geometry">
            <mxPoint x="8" y="-7.5" as="offset" />
          </mxGeometry>
        </mxCell>
        <mxCell id="ErnYhEEOo7ahbGE3ESCM-39" value="4" style="text;strokeColor=none;align=left;verticalAlign=middle;spacingLeft=27;spacingRight=10;overflow=hidden;points=[[0,0.5],[1,0.5]];portConstraint=eastwest;rotatable=0;whiteSpace=wrap;html=1;fillColor=none;fontColor=inherit;fontSize=17;" vertex="1" parent="ErnYhEEOo7ahbGE3ESCM-32">
          <mxGeometry y="120" width="150" height="30" as="geometry" />
        </mxCell>
        <mxCell id="ErnYhEEOo7ahbGE3ESCM-40" value="" style="resizable=0;fillColor=#EEEEEE;strokeColor=#999999;gradientColor=#cccccc;html=1;" vertex="1" parent="ErnYhEEOo7ahbGE3ESCM-39">
          <mxGeometry y="0.5" width="15" height="15" relative="1" as="geometry">
            <mxPoint x="8" y="-7.5" as="offset" />
          </mxGeometry>
        </mxCell>
        <mxCell id="ErnYhEEOo7ahbGE3ESCM-42" value="5" style="text;strokeColor=none;align=left;verticalAlign=middle;spacingLeft=27;spacingRight=10;overflow=hidden;points=[[0,0.5],[1,0.5]];portConstraint=eastwest;rotatable=0;whiteSpace=wrap;html=1;fillColor=none;fontColor=inherit;fontSize=17;" vertex="1" parent="ErnYhEEOo7ahbGE3ESCM-32">
          <mxGeometry y="150" width="150" height="30" as="geometry" />
        </mxCell>
        <mxCell id="ErnYhEEOo7ahbGE3ESCM-43" value="" style="resizable=0;fillColor=#EEEEEE;strokeColor=#999999;gradientColor=#cccccc;html=1;" vertex="1" parent="ErnYhEEOo7ahbGE3ESCM-42">
          <mxGeometry y="0.5" width="15" height="15" relative="1" as="geometry">
            <mxPoint x="8" y="-7.5" as="offset" />
          </mxGeometry>
        </mxCell>
        <mxCell id="ErnYhEEOo7ahbGE3ESCM-45" value="&lt;font style=&quot;font-size: 31px;&quot;&gt;Note opzionali della recensione&lt;/font&gt;" style="strokeWidth=1;shadow=0;dashed=0;align=center;html=1;shape=mxgraph.mockup.text.textBox;fontColor=#666666;align=left;fontSize=17;spacingLeft=4;spacingTop=-3;whiteSpace=wrap;strokeColor=#666666;mainText=" vertex="1" parent="ErnYhEEOo7ahbGE3ESCM-1">
          <mxGeometry x="620" y="330" width="450" height="180" as="geometry" />
        </mxCell>
        <mxCell id="ErnYhEEOo7ahbGE3ESCM-48" value="" style="endArrow=classic;html=1;rounded=0;entryX=-0.005;entryY=0.501;entryDx=0;entryDy=0;entryPerimeter=0;" edge="1" parent="ErnYhEEOo7ahbGE3ESCM-1" target="ErnYhEEOo7ahbGE3ESCM-12">
          <mxGeometry width="50" height="50" relative="1" as="geometry">
            <mxPoint x="480" y="420" as="sourcePoint" />
            <mxPoint x="1240" y="427" as="targetPoint" />
            <Array as="points">
              <mxPoint x="480" y="530" />
              <mxPoint x="1240" y="530" />
              <mxPoint x="1240" y="430" />
            </Array>
          </mxGeometry>
        </mxCell>
        <mxCell id="ErnYhEEOo7ahbGE3ESCM-49" value="Cancella" style="strokeWidth=1;shadow=0;dashed=0;align=center;html=1;shape=mxgraph.mockup.buttons.button;strokeColor=#666666;fontColor=#ffffff;mainText=;buttonStyle=round;fontSize=17;fontStyle=1;fillColor=#008cff;whiteSpace=wrap;" vertex="1" parent="ErnYhEEOo7ahbGE3ESCM-1">
          <mxGeometry x="270" y="580" width="150" height="50" as="geometry" />
        </mxCell>
        <mxCell id="ErnYhEEOo7ahbGE3ESCM-50" value="Conferma" style="strokeWidth=1;shadow=0;dashed=0;align=center;html=1;shape=mxgraph.mockup.buttons.button;strokeColor=#666666;fontColor=#ffffff;mainText=;buttonStyle=round;fontSize=17;fontStyle=1;fillColor=#008cff;whiteSpace=wrap;" vertex="1" parent="ErnYhEEOo7ahbGE3ESCM-1">
          <mxGeometry x="690" y="580" width="150" height="50" as="geometry" />
        </mxCell>
        <mxCell id="ErnYhEEOo7ahbGE3ESCM-18" value="" style="shape=waypoint;sketch=0;size=6;pointerEvents=1;points=[];fillColor=default;resizable=0;rotatable=0;perimeter=centerPerimeter;snapToPoint=1;" vertex="1" parent="1">
          <mxGeometry x="1256" y="135" width="20" height="20" as="geometry" />
        </mxCell>
        <mxCell id="ErnYhEEOo7ahbGE3ESCM-19" value="" style="edgeStyle=orthogonalEdgeStyle;rounded=0;orthogonalLoop=1;jettySize=auto;html=1;" edge="1" parent="1" source="ErnYhEEOo7ahbGE3ESCM-17" target="ErnYhEEOo7ahbGE3ESCM-18">
          <mxGeometry relative="1" as="geometry">
            <mxPoint x="1090" y="145" as="sourcePoint" />
            <Array as="points">
              <mxPoint x="1266" y="140" />
            </Array>
          </mxGeometry>
        </mxCell>
        <mxCell id="ErnYhEEOo7ahbGE3ESCM-20" value="Title" style="swimlane;strokeColor=#999999;swimlaneFillColor=#FFFFFF;fillColor=#ffffff;fontColor=#008CFF;fontStyle=0;childLayout=stackLayout;horizontal=1;startSize=30;horizontalStack=0;resizeParent=1;resizeParentMax=0;resizeLast=0;collapsible=0;marginBottom=0;whiteSpace=wrap;html=1;fontSize=17;" vertex="1" parent="1">
          <mxGeometry x="440" y="160" width="150" height="100" as="geometry" />
        </mxCell>
        <mxCell id="ErnYhEEOo7ahbGE3ESCM-21" value="Prenota corsa" style="text;spacing=0;strokeColor=none;align=left;verticalAlign=middle;spacingLeft=7;spacingRight=10;overflow=hidden;points=[[0,0.5],[1,0.5]];portConstraint=eastwest;rotatable=0;whiteSpace=wrap;html=1;fillColor=none;fontColor=#666666;fontSize=17;" vertex="1" parent="ErnYhEEOo7ahbGE3ESCM-20">
          <mxGeometry y="30" width="150" height="20" as="geometry" />
        </mxCell>
        <mxCell id="ErnYhEEOo7ahbGE3ESCM-22" value="Le tue corse" style="text;spacing=0;strokeColor=none;align=left;verticalAlign=middle;spacingLeft=7;spacingRight=10;overflow=hidden;points=[[0,0.5],[1,0.5]];portConstraint=eastwest;rotatable=0;whiteSpace=wrap;html=1;rSize=5;fillColor=none;fontColor=#666666;fontSize=17;" vertex="1" parent="ErnYhEEOo7ahbGE3ESCM-20">
          <mxGeometry y="50" width="150" height="20" as="geometry" />
        </mxCell>
        <mxCell id="ErnYhEEOo7ahbGE3ESCM-23" value="" style="text;spacing=0;strokeColor=none;align=left;verticalAlign=middle;spacingLeft=7;spacingRight=10;overflow=hidden;points=[[0,0.5],[1,0.5]];portConstraint=eastwest;rotatable=0;whiteSpace=wrap;html=1;fillColor=none;fontColor=#666666;fontSize=17;" vertex="1" parent="ErnYhEEOo7ahbGE3ESCM-20">
          <mxGeometry y="70" width="150" height="30" as="geometry" />
        </mxCell>
        <mxCell id="ErnYhEEOo7ahbGE3ESCM-24" value="Title" style="swimlane;strokeColor=#999999;swimlaneFillColor=#FFFFFF;fillColor=#ffffff;fontColor=#008CFF;fontStyle=0;childLayout=stackLayout;horizontal=1;startSize=30;horizontalStack=0;resizeParent=1;resizeParentMax=0;resizeLast=0;collapsible=0;marginBottom=0;whiteSpace=wrap;html=1;fontSize=17;" vertex="1" parent="1">
          <mxGeometry x="1270" y="30" width="150" height="230" as="geometry" />
        </mxCell>
        <mxCell id="ErnYhEEOo7ahbGE3ESCM-25" value="dropdown" style="strokeWidth=1;shadow=0;dashed=0;align=center;html=1;shape=mxgraph.mockup.forms.comboBox;strokeColor=#999999;fillColor=#ddeeff;align=left;fillColor2=#aaddff;mainText=;fontColor=#666666;fontSize=17;spacingLeft=3;" vertex="1" parent="ErnYhEEOo7ahbGE3ESCM-24">
          <mxGeometry y="30" width="150" height="30" as="geometry" />
        </mxCell>
        <mxCell id="ErnYhEEOo7ahbGE3ESCM-26" value="Visualizza profilo" style="text;spacing=0;strokeColor=none;align=left;verticalAlign=middle;spacingLeft=7;spacingRight=10;overflow=hidden;points=[[0,0.5],[1,0.5]];portConstraint=eastwest;rotatable=0;whiteSpace=wrap;html=1;fillColor=none;fontColor=#666666;fontSize=17;" vertex="1" parent="ErnYhEEOo7ahbGE3ESCM-24">
          <mxGeometry y="60" width="150" height="20" as="geometry" />
        </mxCell>
        <mxCell id="ErnYhEEOo7ahbGE3ESCM-27" value="Modifica profilo" style="text;spacing=0;strokeColor=none;align=left;verticalAlign=middle;spacingLeft=7;spacingRight=10;overflow=hidden;points=[[0,0.5],[1,0.5]];portConstraint=eastwest;rotatable=0;whiteSpace=wrap;html=1;rSize=5;fillColor=none;fontColor=#666666;fontSize=17;" vertex="1" parent="ErnYhEEOo7ahbGE3ESCM-24">
          <mxGeometry y="80" width="150" height="20" as="geometry" />
        </mxCell>
        <mxCell id="ErnYhEEOo7ahbGE3ESCM-28" value="" style="text;spacing=0;strokeColor=none;align=left;verticalAlign=middle;spacingLeft=7;spacingRight=10;overflow=hidden;points=[[0,0.5],[1,0.5]];portConstraint=eastwest;rotatable=0;whiteSpace=wrap;html=1;rSize=5;fillColor=#DDEEFF;fontColor=#666666;fontSize=17;" vertex="1" parent="ErnYhEEOo7ahbGE3ESCM-24">
          <mxGeometry y="100" width="150" height="20" as="geometry" />
        </mxCell>
        <mxCell id="ErnYhEEOo7ahbGE3ESCM-29" value="LOGOUT" style="text;spacing=0;strokeColor=none;align=left;verticalAlign=middle;spacingLeft=7;spacingRight=10;overflow=hidden;points=[[0,0.5],[1,0.5]];portConstraint=eastwest;rotatable=0;whiteSpace=wrap;html=1;fillColor=none;fontColor=#666666;fontSize=17;" vertex="1" parent="ErnYhEEOo7ahbGE3ESCM-24">
          <mxGeometry y="120" width="150" height="20" as="geometry" />
        </mxCell>
        <mxCell id="ErnYhEEOo7ahbGE3ESCM-30" value="" style="text;spacing=0;strokeColor=none;align=left;verticalAlign=middle;spacingLeft=7;spacingRight=10;overflow=hidden;points=[[0,0.5],[1,0.5]];portConstraint=eastwest;rotatable=0;whiteSpace=wrap;html=1;fillColor=none;fontColor=#666666;fontSize=17;" vertex="1" parent="ErnYhEEOo7ahbGE3ESCM-24">
          <mxGeometry y="140" width="150" height="90" as="geometry" />
        </mxCell>
        <mxCell id="ErnYhEEOo7ahbGE3ESCM-12" value="Spiegazione&amp;nbsp;&lt;div&gt;errore&lt;/div&gt;" style="strokeWidth=1;shadow=0;dashed=0;align=center;html=1;shape=mxgraph.mockup.containers.rrect;rSize=0;strokeColor=#666666;fontColor=#666666;fontSize=17;verticalAlign=top;whiteSpace=wrap;fillColor=#fee1e1;spacingTop=32;" vertex="1" parent="1">
          <mxGeometry x="1340" y="350" width="250" height="140" as="geometry" />
        </mxCell>
        <mxCell id="ErnYhEEOo7ahbGE3ESCM-13" value="ERROR" style="strokeWidth=1;shadow=0;dashed=0;align=center;html=1;shape=mxgraph.mockup.containers.rrect;rSize=0;fontSize=17;fontColor=#666666;strokeColor=#666666;align=left;spacingLeft=8;fillColor=none;resizeWidth=1;whiteSpace=wrap;" vertex="1" parent="ErnYhEEOo7ahbGE3ESCM-12">
          <mxGeometry width="250" height="30" relative="1" as="geometry" />
        </mxCell>
        <mxCell id="ErnYhEEOo7ahbGE3ESCM-14" value="" style="shape=ellipse;strokeColor=#008cff;resizable=0;fillColor=none;html=1;" vertex="1" parent="ErnYhEEOo7ahbGE3ESCM-13">
          <mxGeometry x="1" y="0.5" width="20" height="20" relative="1" as="geometry">
            <mxPoint x="-25" y="-10" as="offset" />
          </mxGeometry>
        </mxCell>
        <mxCell id="ErnYhEEOo7ahbGE3ESCM-15" value="Cancel" style="strokeWidth=1;shadow=0;dashed=0;align=center;html=1;shape=mxgraph.mockup.containers.rrect;rSize=0;fontSize=16;fontColor=#666666;strokeColor=#c4c4c4;whiteSpace=wrap;fillColor=none;" vertex="1" parent="ErnYhEEOo7ahbGE3ESCM-12">
          <mxGeometry x="0.25" y="1" width="90" height="25" relative="1" as="geometry">
            <mxPoint x="-45" y="-33" as="offset" />
          </mxGeometry>
        </mxCell>
        <mxCell id="ErnYhEEOo7ahbGE3ESCM-16" value="OK" style="strokeWidth=1;shadow=0;dashed=0;align=center;html=1;shape=mxgraph.mockup.containers.rrect;rSize=0;fontSize=16;fontColor=#666666;strokeColor=#c4c4c4;whiteSpace=wrap;fillColor=none;" vertex="1" parent="ErnYhEEOo7ahbGE3ESCM-12">
          <mxGeometry x="0.75" y="1" width="90" height="25" relative="1" as="geometry">
            <mxPoint x="-45" y="-33" as="offset" />
          </mxGeometry>
        </mxCell>
        <mxCell id="ErnYhEEOo7ahbGE3ESCM-31" value="" style="edgeStyle=orthogonalEdgeStyle;rounded=0;orthogonalLoop=1;jettySize=auto;html=1;" edge="1" parent="1" target="ErnYhEEOo7ahbGE3ESCM-17">
          <mxGeometry relative="1" as="geometry">
            <mxPoint x="1090" y="145" as="sourcePoint" />
            <mxPoint x="1266" y="145" as="targetPoint" />
          </mxGeometry>
        </mxCell>
        <mxCell id="ErnYhEEOo7ahbGE3ESCM-17" value="" style="verticalLabelPosition=bottom;shadow=0;dashed=0;align=center;html=1;verticalAlign=top;strokeWidth=1;shape=mxgraph.mockup.containers.userMale;strokeColor=#666666;strokeColor2=#008cff;" vertex="1" parent="1">
          <mxGeometry x="1060" y="100" width="100" height="80" as="geometry" />
        </mxCell>
        <mxCell id="ErnYhEEOo7ahbGE3ESCM-53" value="&lt;font style=&quot;font-size: 50px;&quot;&gt;Caso d&#39;uso 440: Recensione&lt;/font&gt;" style="text;html=1;align=center;verticalAlign=middle;whiteSpace=wrap;rounded=0;" vertex="1" parent="1">
          <mxGeometry x="40" y="-150" width="1160" height="100" as="geometry" />
        </mxCell>
        <mxCell id="ErnYhEEOo7ahbGE3ESCM-54" value="&lt;span style=&quot;font-size: 30px;&quot;&gt;POST /users/{idUser}/rides/{idRide}/reviews&lt;/span&gt;" style="text;html=1;align=center;verticalAlign=middle;whiteSpace=wrap;rounded=0;" vertex="1" parent="1">
          <mxGeometry x="1390" y="580" width="630" height="30" as="geometry" />
        </mxCell>
        <mxCell id="ErnYhEEOo7ahbGE3ESCM-55" value="" style="endArrow=classic;html=1;rounded=0;exitX=0.999;exitY=0.505;exitDx=0;exitDy=0;exitPerimeter=0;entryX=0;entryY=0.75;entryDx=0;entryDy=0;" edge="1" parent="1" source="ErnYhEEOo7ahbGE3ESCM-50" target="ErnYhEEOo7ahbGE3ESCM-54">
          <mxGeometry width="50" height="50" relative="1" as="geometry">
            <mxPoint x="660" y="430" as="sourcePoint" />
            <mxPoint x="710" y="380" as="targetPoint" />
            <Array as="points" />
          </mxGeometry>
        </mxCell>
      </root>
    </mxGraphModel>
  </diagram>
</mxfile>
